<?xml version="1.0" encoding="UTF-8"?>
<svg id="Layer_1" xmlns="http://www.w3.org/2000/svg" version="1.1" viewBox="0 0 136.1199951 45.7000999">
  <!-- Generator: Adobe Illustrator 30.2.1, SVG Export Plug-In . SVG Version: 2.1.1 Build 1)  -->
  <defs>
    <style>
      .st0 {
        fill: #282828;
      }
    </style>
  </defs>
  <path class="st0" d="M0,45.0699997V0h6.27v16.1700001c2.6699996-2.3400002,5.9100003-3.5100002,9.7199998-3.5100002,3.0100002,0,5.7399998.7300005,8.1800003,2.1900005,2.4400005,1.4599991,4.3799992,3.4400005,5.7999992,5.9200001,1.4200001,2.4899998,2.1299992,5.2600002,2.1299992,8.3099995,0,3.0899982-.7099991,5.8799992-2.1299992,8.3700008-1.4200001,2.4899979-3.3599987,4.4599991-5.8299999,5.9199982-2.4699993,1.4600029-5.25,2.1900024-8.3399992,2.1900024-1.75,0-3.46-.2800026-5.1100006-.8500023-1.6499996-.5599976-3.1499996-1.3699989-4.4799995-2.4099998v2.7600021H0v.0099983ZM15.1700001,40.1199989c2.0499992,0,3.8799992-.4699974,5.4799995-1.4099998,1.6100006-.9399986,2.8900013-2.25,3.8500004-3.9199982.9599991-1.670002,1.4400005-3.5500011,1.4400005-5.6400013s-.4800014-3.9699993-1.4400005-5.6399994-2.25-3-3.8500004-3.9799995c-1.6099987-.9800014-3.4400005-1.4700012-5.4799995-1.4700012-1.8000002,0-3.4700003.3400002-5.0100002,1.0300007-1.5500002.6900005-2.8399997,1.6399994-3.8899999,2.8500004v14.4200001c1.04,1.1300011,2.3499999,2.0400009,3.9199996,2.7299995,1.5600004.6800003,3.2200003,1.0299988,4.9800005,1.0299988Z"/>
  <path class="st0" d="M51.339901,45.7000999c-3.0900002,0-5.9000015-.7200012-8.4300003-2.1599998s-4.5400009-3.4300995-6.0200005-5.9500999c-1.4799995-2.5299988-2.2200012-5.3400002-2.2200012-8.4300003,0-3.1299992.7299995-5.9400005,2.1900024-8.4300003,1.4599991-2.4899998,3.4699974-4.4699993,6.0200005-5.9499998,2.5499992-1.4799995,5.3699989-2.2299995,8.4599991-2.2299995s5.8999977.7399998,8.4300003,2.2299995c2.5299988,1.4800005,4.5200005,3.4700003,5.9900017,5.9499998,1.4599991,2.4899998,2.1899948,5.3000011,2.1899948,8.4300003,0,3.0900002-.7299957,5.9000015-2.1899948,8.4300003-1.4600067,2.5299988-3.4600029,4.5101013-5.9900017,5.9500999-2.5300026,1.4399986-5.3400002,2.1599998-8.4300003,2.1599998ZM51.339901,40.1800003c1.9599991,0,3.7399979-.4900017,5.329998-1.4700012s2.8400002-2.3099976,3.7600021-3.9799995c.9199982-1.6699982,1.3799973-3.5499992,1.3799973-5.6399994,0-2.0499992-.4599991-3.8999996-1.3799973-5.5499992-.920002-1.6500015-2.170002-2.9800014-3.7600021-3.9800014s-3.3600006-1.5-5.329998-1.5c-1.920002,0-3.6900024.5-5.2999992,1.5-1.6100006,1-2.8700027,2.3299999-3.7900009,3.9800014-.920002,1.6499996-1.3800011,3.5-1.3800011,5.5499992,0,2.0900002.4599991,3.9700012,1.3800011,5.6399994.9199982,1.670002,2.1800003,3,3.7900009,3.9799995,1.6099968.9799995,3.3799973,1.4700012,5.2999992,1.4700012Z"/>
  <path class="st0" d="M84.0301971,45.7000008c-2.4699936,0-4.6399994-.5200005-6.5199966-1.5699997-1.8799973-1.0400009-3.3499985-2.5200005-4.4199982-4.420002-1.0699997-1.8999977-1.6000061-4.0599976-1.6000061-6.4899979V13.1599998h6.2700043v18.9900017c0,2.4699974.7200012,4.4300003,2.159996,5.8899994,1.4400024,1.4599991,3.3700027,2.1899986,5.8000031,2.1899986,1.6699982,0,3.1900024-.3699989,4.5400009-1.0999985,1.3600006-.7299995,2.4499969-1.7600021,3.2900009-3.1000023V13.1599998h6.2699966v31.9099998h-6.2699966v-3.2599983c-2.4599991,2.5900002-5.6300049,3.8899994-9.5200043,3.8899994Z"/>
  <path class="st0" d="M105.6600037,45.0699997V0h6.2699966v45.0699997h-6.2699966Z"/>
  <path class="st0" d="M129.8999939,45.6300011c-3.0499954,0-5.3899918-.7100029-7.0199966-2.1300011-1.6299973-1.4199982-2.4399948-3.5299988-2.4399948-6.3300018v-18.7399979h-5.1800003v-5.2700005h5.1800003V3.51001h6.2099991v9.6499898h9.4699936v5.2700005h-9.4699936v17.3600006c0,1.5900002.3699951,2.7299995,1.0999985,3.4199982.7299957.6900024,1.9299927,1.0300026,3.6000061,1.0300026.8799896,0,1.6599884-.0600014,2.3499908-.1900024s1.4300079-.329998,2.2299957-.6300011v5.3300018c-.8399963.2900009-1.8099976.5099983-2.9099884.6599998-1.1300049.1500015-2.1600037.2200012-3.1200104.2200012Z"/>
</svg>