<?xml version="1.0" encoding="iso-8859-1"?>
<!-- Generator: Adobe Illustrator 30.2.1, SVG Export Plug-In . SVG Version: 9.03 Build 0)  -->
<svg version="1.1" id="Icons" xmlns="http://www.w3.org/2000/svg" xmlns:xlink="http://www.w3.org/1999/xlink" x="0px" y="0px"
	 viewBox="0 0 60 50" style="enable-background:new 0 0 60 50;" xml:space="preserve">
<path style="fill:#CDA85B;" d="M37.721,8.612c-3.483-3.483-9.13-3.483-12.613,0l-4.822,4.822c-0.41,0.41-0.41,1.074,0,1.484
	l11.129,11.129c0.41,0.41,1.074,0.41,1.484,0l4.822-4.822C41.204,17.742,41.204,12.095,37.721,8.612z M28.916,46.065h-6.558V33.938
	c0-1.087-0.881-1.967-1.967-1.967c-1.087,0-1.967,0.881-1.967,1.967v12.127h-6.558c-1.087,0-1.967,0.881-1.967,1.967
	c0,1.087,0.881,1.967,1.967,1.967h17.05c1.087,0,1.967-0.881,1.967-1.967C30.884,46.946,30.003,46.065,28.916,46.065z
	 M16.325,38.837v-4.899c0-2.242,1.824-4.066,4.066-4.066c1.463,0,2.736,0.783,3.453,1.946c3.907-1.121,6.087-2.802,6.087-2.802
	c0.41-0.41,0.41-1.074,0-1.484l-5.564-5.564l-5.564-5.564c-0.41-0.41-1.074-0.41-1.484,0c0,0-1.899,2.425-3.006,6.79L1.829,35.676
	c-2.438,2.438-2.438,6.391,0,8.829c2.438,2.438,6.391,2.438,8.829,0L16.325,38.837z"/>
</svg>
